<svg id="visual" viewBox="0 0 1000 600" width="1000" height="600" xmlns="http://www.w3.org/2000/svg" xmlns:xlink="http://www.w3.org/1999/xlink" version="1.1"><rect x="0" y="0" width="1000" height="600" fill="#333333"></rect><path d="M0 482L125 482L125 360L250 360L250 505L375 505L375 373L500 373L500 435L625 435L625 451L750 451L750 515L875 515L875 372L1000 372L1000 419L1000 0L1000 0L875 0L875 0L750 0L750 0L625 0L625 0L500 0L500 0L375 0L375 0L250 0L250 0L125 0L125 0L0 0Z" fill="#444444"></path><path d="M0 308L125 308L125 319L250 319L250 392L375 392L375 367L500 367L500 398L625 398L625 311L750 311L750 283L875 283L875 431L1000 431L1000 372L1000 0L1000 0L875 0L875 0L750 0L750 0L625 0L625 0L500 0L500 0L375 0L375 0L250 0L250 0L125 0L125 0L0 0Z" fill="#3d3d3d"></path><path d="M0 192L125 192L125 272L250 272L250 332L375 332L375 269L500 269L500 254L625 254L625 317L750 317L750 231L875 231L875 306L1000 306L1000 211L1000 0L1000 0L875 0L875 0L750 0L750 0L625 0L625 0L500 0L500 0L375 0L375 0L250 0L250 0L125 0L125 0L0 0Z" fill="#363636"></path><path d="M0 160L125 160L125 248L250 248L250 233L375 233L375 222L500 222L500 232L625 232L625 200L750 200L750 118L875 118L875 206L1000 206L1000 242L1000 0L1000 0L875 0L875 0L750 0L750 0L625 0L625 0L500 0L500 0L375 0L375 0L250 0L250 0L125 0L125 0L0 0Z" fill="#2f2f2f"></path><path d="M0 80L125 80L125 87L250 87L250 53L375 53L375 119L500 119L500 99L625 99L625 74L750 74L750 59L875 59L875 138L1000 138L1000 129L1000 0L1000 0L875 0L875 0L750 0L750 0L625 0L625 0L500 0L500 0L375 0L375 0L250 0L250 0L125 0L125 0L0 0Z" fill="#292929"></path></svg>