<svg id="visual" viewBox="0 0 900 600" width="900" height="600" xmlns="http://www.w3.org/2000/svg" xmlns:xlink="http://www.w3.org/1999/xlink" version="1.1"><rect x="0" y="0" width="900" height="600" fill="#333333"></rect><path d="M0 482L113 482L113 360L225 360L225 505L338 505L338 373L450 373L450 435L563 435L563 451L675 451L675 515L788 515L788 372L900 372L900 419L900 0L900 0L788 0L788 0L675 0L675 0L563 0L563 0L450 0L450 0L338 0L338 0L225 0L225 0L113 0L113 0L0 0Z" fill="#444444"></path><path d="M0 308L113 308L113 319L225 319L225 392L338 392L338 367L450 367L450 398L563 398L563 311L675 311L675 283L788 283L788 431L900 431L900 372L900 0L900 0L788 0L788 0L675 0L675 0L563 0L563 0L450 0L450 0L338 0L338 0L225 0L225 0L113 0L113 0L0 0Z" fill="#3d3d3d"></path><path d="M0 192L113 192L113 272L225 272L225 332L338 332L338 269L450 269L450 254L563 254L563 317L675 317L675 231L788 231L788 306L900 306L900 211L900 0L900 0L788 0L788 0L675 0L675 0L563 0L563 0L450 0L450 0L338 0L338 0L225 0L225 0L113 0L113 0L0 0Z" fill="#363636"></path><path d="M0 160L113 160L113 248L225 248L225 233L338 233L338 222L450 222L450 232L563 232L563 200L675 200L675 118L788 118L788 206L900 206L900 242L900 0L900 0L788 0L788 0L675 0L675 0L563 0L563 0L450 0L450 0L338 0L338 0L225 0L225 0L113 0L113 0L0 0Z" fill="#2f2f2f"></path><path d="M0 80L113 80L113 87L225 87L225 53L338 53L338 119L450 119L450 99L563 99L563 74L675 74L675 59L788 59L788 138L900 138L900 129L900 0L900 0L788 0L788 0L675 0L675 0L563 0L563 0L450 0L450 0L338 0L338 0L225 0L225 0L113 0L113 0L0 0Z" fill="#292929"></path></svg>